<?xml version="1.0" encoding="UTF-8"?>
<svg viewBox="0 0 48 24" version="1.1" xmlns="http://www.w3.org/2000/svg" xmlns:xlink="http://www.w3.org/1999/xlink">
    <g stroke="none" stroke-width="1" fill="none" fill-rule="evenodd">
        <path d="M0,0 L48,0 L48,24 L0,24 L0,0 Z M8.02148438,20 C10.3574219,20 12.1875,19.3359375 13.5117188,18.0078125 C14.8359375,16.6796875 15.4980469,14.7148438 15.4980469,12.1132812 C15.4980469,10.4101562 15.203125,8.97265625 14.6132812,7.80078125 C14.0234375,6.62890625 13.1699219,5.74023438 12.0527344,5.13476562 C10.9355469,4.52929688 9.59179688,4.2265625 8.02148438,4.2265625 L8.02148438,4.2265625 L3.68554688,4.2265625 L3.68554688,20 L8.02148438,20 Z M7.72851562,17.234375 L7.00195312,17.234375 L7.00195312,6.9921875 L7.72851562,6.9921875 C8.66601562,6.9921875 9.45703125,7.17382812 10.1015625,7.53710938 C10.7460938,7.90039062 11.2363281,8.45898438 11.5722656,9.21289062 C11.9082031,9.96679688 12.0761719,10.9335938 12.0761719,12.1132812 C12.0761719,13.3085938 11.9179688,14.2832031 11.6015625,15.0371094 C11.2851562,15.7910156 10.8046875,16.3457031 10.1601562,16.7011719 C9.515625,17.0566406 8.70507812,17.234375 7.72851562,17.234375 L7.72851562,17.234375 Z M21.4511719,20 L21.451,9.639 L26.2792969,20 L29.5253906,20 L29.5253906,4.2265625 L26.5371094,4.2265625 L26.537,14.55 L21.7441406,4.2265625 L18.4746094,4.2265625 L18.4746094,20 L21.4511719,20 Z M36.3691406,20 L36.3691406,14.3984375 L38.7246094,14.3984375 C39.7558594,14.3984375 40.6992188,14.2148438 41.5546875,13.8476562 C42.4101562,13.4804688 43.0917969,12.9179688 43.5996094,12.1601562 C44.1074219,11.4023438 44.3613281,10.4414062 44.3613281,9.27734375 C44.3613281,8.12109375 44.1074219,7.171875 43.5996094,6.4296875 C43.0917969,5.6875 42.4101562,5.13476562 41.5546875,4.77148438 C40.6992188,4.40820312 39.7558594,4.2265625 38.7246094,4.2265625 L38.7246094,4.2265625 L33.0527344,4.2265625 L33.0527344,20 L36.3691406,20 Z M38.4316406,11.7382812 L36.3691406,11.7382812 L36.3691406,6.91015625 L38.4316406,6.91015625 C39.1660156,6.91015625 39.7734375,7.10351562 40.2539062,7.49023438 C40.734375,7.87695312 40.9746094,8.47265625 40.9746094,9.27734375 C40.9746094,10.0976562 40.7402344,10.7128906 40.2714844,11.1230469 C39.8027344,11.5332031 39.1894531,11.7382812 38.4316406,11.7382812 L38.4316406,11.7382812 Z" fill="#000000"></path>
    </g>
</svg>
