<?xml version="1.0" encoding="UTF-8"?>
<svg viewBox="0 0 1000 1000" version="1.1" xmlns="http://www.w3.org/2000/svg" xmlns:xlink="http://www.w3.org/1999/xlink">
    <g stroke="none" stroke-width="0" fill="#876" fill-rule="evenodd">
        <path d="M850,0 C890,1.32194396 925,16.1938135 955,44.6156086 C985,73.0374036 1000,107.738433 1000,148.718695 L1000,793.166374 C1000,820.266226 985,846.705105 955,872.483012 C910,911.149873 754.147776,943.361983 550,991.457968 C501.647776,1002.84946 498.334255,1002.84523 450,991.457968 C245.834255,943.357749 90,914.124247 45,872.483012 C15,844.722189 0,818.28331 0,793.166374 L0,148.718695 C3.33333333,105.755517 18.3333333,71.0544877 45,44.6156086 C71.6666667,18.1767294 105.621108,3.30485989 146.863324,0 L850,0 Z M815,50 L182.176991,50 C145.058997,52.7099851 114.5,64.9049181 90.5,86.584799 C66.5,108.26468 53,136.719524 50,171.94933 L50,171.94933 L50,700.396427 C50,720.992314 63.5,742.672195 90.5,765.43607 C131,799.581882 271.267002,823.556826 455,862.995534 C498.517002,872.336558 501.499171,872.333086 545,862.995534 C728.749171,823.553354 869,797.142896 909.5,765.43607 C936.5,744.298186 950,722.618305 950,700.396427 L950,700.396427 L950,171.94933 C950,138.345515 936.5,109.890671 909.5,86.584799 C882.5,63.2789271 851,51.083994 815,50 L815,50 Z" />
        <path d="M232.194286,649 C250.380092,649 266.63235,643.150938 280.95106,631.452813 C295.26977,619.754688 307.55788,603.189161 317.815392,581.756233 C328.072903,560.323305 336.068387,534.963734 341.801843,505.677519 C343.354654,497.878769 344.720829,489.889141 345.900369,481.708634 C347.079908,473.528127 348.117604,465.156742 349.013456,456.594478 C349.909309,448.032214 350.648387,439.251803 351.230691,430.253245 C351.812995,421.254688 352.253456,412.119788 352.552074,402.848547 C352.850691,393.577306 353,384.115186 353,374.462188 C353,346.866612 351.962304,324.152071 349.886912,306.318566 C347.811521,288.485061 343.996682,275.246274 338.442396,266.602205 C332.888111,257.958136 324.900092,253.636101 314.478341,253.636101 C305.43023,253.636101 297.785622,256.949207 291.544516,263.575417 C285.30341,270.201628 280.615115,280.836287 277.479631,295.479394 C274.344147,310.122502 272.776406,329.523937 272.776406,353.683701 C272.776406,362.245965 272.634562,370.890034 272.350876,379.615908 C272.067189,388.341782 271.641659,396.876777 271.074286,405.220894 C270.506912,413.565011 269.723041,421.609176 268.722673,429.35339 C267.722304,437.097603 266.505438,444.405522 265.072074,451.277148 C263.101198,461.03922 260.600276,469.601484 257.569309,476.96394 C254.538341,484.326396 250.925069,490.093653 246.729493,494.265712 C242.533917,498.43777 237.688848,500.5238 232.194286,500.5238 C223.922581,500.5238 217.34553,495.95635 212.463134,486.821451 C207.580737,477.686551 203.900276,465.647572 201.421751,450.704513 C200.496037,445.414452 199.7047,439.783536 199.047742,433.811766 C198.390783,427.839996 197.853272,421.581908 197.435207,415.037503 C197.017143,408.493097 196.673733,401.771447 196.404977,394.872553 C196.136221,387.973659 195.957051,380.883886 195.867465,373.603235 C195.77788,366.322584 195.733088,359.055567 195.733088,351.802184 C195.733088,327.15159 194.411705,307.559276 191.76894,293.025242 C189.126175,278.491208 185.147097,268.020159 179.831705,261.612096 C174.516313,255.204032 167.782488,252 159.63023,252 C147.566083,252 137.890876,256.608352 130.604608,265.825057 C123.318341,275.041761 118.062673,288.962257 114.837604,307.586544 C111.612535,326.210832 110,349.647984 110,377.898001 C110,387.114706 110.134378,396.195068 110.403134,405.139089 C110.671889,414.08311 111.075023,422.890789 111.612535,431.562127 C112.150046,440.233464 112.81447,448.67302 113.605806,456.880795 C114.397143,465.088571 115.337788,473.14637 116.427742,481.054193 C117.517696,488.962017 118.764424,496.678961 120.167926,504.205028 C128.559078,547.998008 142.220829,583.078749 161.15318,609.447249 C180.08553,635.81575 203.765899,649 232.194286,649 Z M442.019555,646 C461.250383,646 479.651265,642.682044 497.222201,636.046132 C514.793137,629.410221 530.965874,620.057135 545.740414,607.986876 C560.514954,595.916617 573.38286,581.648041 584.344133,565.181149 C595.305406,548.714257 603.821702,530.649831 609.893021,510.98787 C615.96434,491.32591 619,470.708159 619,449.134619 C619,429.581892 616.218558,409.687811 610.655675,389.452376 C605.092791,369.216942 597.219517,349.855372 587.035851,331.367668 C576.852186,312.879963 564.814225,296.317492 550.921971,281.680255 C537.029716,267.043017 521.739264,255.436999 505.050613,246.862199 C488.361963,238.2874 470.776074,234 452.292945,234 C434.228528,234 420.575537,241.974017 411.333972,257.922052 C402.092408,273.870087 395.497699,295.907868 391.549847,324.035395 C388.917945,343.424273 387.168328,365.489362 386.300997,390.230662 C385.433666,414.971963 385,441.679459 385,470.353152 C385,489.086631 385.22431,506.290846 385.672929,521.965798 C386.121549,537.64075 386.899156,551.677206 388.005752,564.075164 C389.471242,582.972493 392.073236,598.442633 395.811733,610.485584 C399.55023,622.528534 405.113113,631.458342 412.500383,637.275005 C419.887653,643.091668 429.727377,646 442.019555,646 Z M477.45977,510 C471.341601,510 467.297641,502.358366 465.327889,487.075099 C464.432547,480.252212 463.82073,471.628082 463.492438,461.20271 C463.164146,450.777339 463,438.496142 463,424.359119 C463,416.662902 463.18653,409.512516 463.559589,402.907962 C463.932648,396.303407 464.462392,390.463015 465.14882,385.386787 C466.193386,378.727649 467.625933,373.665067 469.446461,370.19904 C471.266989,366.733013 473.66949,365 476.653962,365 C483.906231,365 490.621295,366.541973 496.799153,369.625918 C502.977011,372.709863 508.543053,376.789949 513.497278,381.866177 C518.451502,386.942405 522.689454,392.619048 526.211131,398.896104 C529.732809,405.17316 532.411373,411.613966 534.246824,418.218521 C536.082275,424.823075 537,431.045549 537,436.88594 C537,443.05383 536.164348,449.508282 534.493043,456.249294 C532.821738,462.990307 530.344626,469.56757 527.061706,475.981084 C523.778786,482.394598 519.742287,488.139469 514.952208,493.215697 C510.162129,498.291925 504.633394,502.358366 498.366001,505.41502 C492.098609,508.471673 485.129865,510 477.45977,510 Z M840.273906,643 C847.285987,643 853.537182,641.157634 859.027492,637.472903 C864.517801,633.788172 868.851864,627.933544 872.029679,619.909019 C875.207494,611.884494 876.796402,601.267009 876.796402,588.056566 C876.796402,580.08663 875.326849,571.775514 872.387743,563.12322 C869.448637,554.470926 864.726672,544.713212 858.221848,533.850079 C856.849271,531.393592 854.730727,527.968157 851.866218,523.573774 C849.001709,519.179391 845.764216,514.252769 842.153741,508.793908 C838.543265,503.335047 834.850733,497.807951 831.076145,492.212619 C827.301558,486.617286 823.795517,481.37678 820.558025,476.4911 C817.320532,471.605419 814.657434,467.606804 812.568729,464.495253 C809.46551,459.855222 807.391725,456.225079 806.347373,453.604826 C805.30302,450.984573 804.780844,448.255142 804.780844,445.416535 C804.780844,442.523339 806.138502,439.370847 808.853818,435.959059 C811.569135,432.547271 815.806221,428.303006 821.565079,423.226266 C826.607809,418.422468 831.881789,413.127373 837.387018,407.340981 C842.892247,401.554589 848.270662,395.454312 853.522262,389.04015 C858.773863,382.625989 863.548046,376.252769 867.84481,369.920491 C871.455285,364.516218 874.625641,359.084652 877.355876,353.625791 C880.086112,348.16693 882.391147,342.789953 884.270981,337.494858 C886.150815,332.199763 887.57561,326.904668 888.545366,321.609573 C889.515122,316.314478 890,311.101266 890,305.969937 C890,296.962816 888.970567,288.324169 886.911701,280.053995 C884.852835,271.783821 881.622802,265.042128 877.221602,259.828916 C872.820403,254.615704 866.994408,252.009098 859.743619,252.009098 C851.418638,252.009098 843.630753,255.107002 836.379964,261.302809 C829.129174,267.498616 821.221935,277.037975 812.658245,289.920886 L811.578182,291.539173 C804.005116,302.940015 796.166971,315.870325 788.063746,330.330103 C779.574653,345.478441 772.391,358.593354 766.512788,369.674842 C763.737794,375.24288 761.134373,379.296084 758.702524,381.834454 C756.270675,384.372824 754.144672,385.642009 752.324515,385.642009 C749.400328,385.642009 747.311623,384.864122 746.0584,383.308347 C744.805177,381.752571 743.820502,379.200554 743.104375,375.652294 C742.925343,373.741693 742.858206,370.671084 742.902964,366.440467 C742.947722,362.20985 743.044698,357.133109 743.193891,351.210245 C743.343084,345.287381 743.537035,338.764043 743.775744,331.640229 C744.014453,324.516416 744.223324,317.051424 744.402356,309.245253 C744.581388,301.439082 744.670903,293.660206 744.670903,285.908623 C744.670903,268.767801 741.873531,254.997824 736.278786,244.598695 C730.684041,234.199565 723.037889,229 713.340331,229 C702.359712,229 692.856105,232.316258 684.829511,238.948774 C676.802917,245.58129 670.238416,256.048655 665.136008,270.35087 C659.735214,287.491693 655.43845,306.870649 652.245716,328.487737 C649.052981,350.104826 646.777785,372.663568 645.420127,396.163964 C644.062469,419.664359 643.294124,442.905459 643.115092,465.887263 C643.025576,474.839794 642.988278,484.229035 643.003197,494.054984 C643.018116,503.880934 643.144931,513.734177 643.38364,523.614715 C643.622349,533.495253 643.980412,543.048259 644.457831,552.273734 C644.935249,561.499209 645.532022,569.960443 646.248149,577.657437 C648.844111,598.401108 653.595914,614.422864 660.503559,625.722706 C667.411205,637.022547 678.04122,642.672468 692.393606,642.672468 C704.060514,642.672468 713.049405,636.735957 719.360277,624.862935 C725.671149,612.989913 729.587471,594.170491 731.109242,568.404668 C731.288273,565.839003 731.430007,562.509098 731.534442,558.414953 C731.638877,554.320807 731.735853,549.953718 731.825369,545.313687 C731.914885,540.673655 731.996941,536.115506 732.071538,531.639241 C732.146134,527.162975 732.190892,523.164359 732.205812,519.643394 C732.218742,516.591891 732.226069,514.288676 732.227793,512.73375 L732.228191,512.069225 C732.228191,506.883307 732.616093,502.720926 733.391897,499.582081 C734.167702,496.443236 735.465683,494.873813 737.28584,494.873813 C738.897127,494.873813 740.441276,495.829114 741.918289,497.739715 C743.395302,499.650316 745.155781,503.021163 747.199728,507.852255 C749.243675,512.683347 751.966451,519.684335 755.368056,528.855222 C757.516438,533.768196 759.828933,539.104233 762.30554,544.863331 C764.782147,550.622429 767.639197,556.859177 770.876689,563.573576 C774.114182,570.287975 777.866391,577.534612 782.133316,585.313489 C786.400242,593.092366 791.442972,601.45807 797.261507,610.410601 C804.930037,621.4375 812.397157,629.625791 819.662866,634.975475 C826.928575,640.325158 833.798921,643 840.273906,643 Z" />
    </g>
</svg>
