<svg xmlns="http://www.w3.org/2000/svg" width="998" height="336" xmlns:v="https://vecta.io/nano"><path d="M58.625 324.875c12.375 0 22.052-1.344 29.031-4.031s12.927-5.823 17.844-9.406c5.333-4.958 10.25-9.844 14.75-14.656a323.17 323.17 0 0 0 12.906-14.656c4.104-4.958 8.24-10.125 12.406-15.5l13-16.875c6.542-9.75 11.927-16.344 16.156-19.781s8.24-5.156 12.031-5.156c3.958 0 7.792 1.323 11.5 3.969s8.063 7.865 13.063 15.656l10 14.094 12.094 16.875a639.04 639.04 0 0 0 12.5 16.625c4.104 5.271 7.823 9.594 11.156 12.969 5.042 4.708 11.26 8.469 18.656 11.281s16.448 4.219 27.156 4.219c9.208 0 18.104-1.958 26.688-5.875s15.677-9.312 21.281-16.187 8.406-14.667 8.406-23.375c0-4.708-.76-9.74-2.281-15.094s-3.906-10.115-7.156-14.281c-6.042-8.208-12.917-16.073-20.625-23.594s-16.729-15-27.062-22.437-22.542-15.115-36.625-23.031c-4.25-2.292-7.771-4.573-10.562-6.844s-4.187-4.427-4.187-6.469c0-2.333 1.521-4.896 4.563-7.687s8.521-6.583 16.438-11.375c5.625-3.875 11.531-8.406 17.719-13.594s12.333-10.729 18.438-16.625 11.719-11.74 16.844-17.531c7.958-8.333 13.708-16.542 17.25-24.625s5.313-15.604 5.313-22.562c0-12.917-3.719-23.531-11.156-31.844S315.896 5 297.688 5c-10.667 0-20.885 2.323-30.656 6.969s-18.385 11.76-25.844 21.344c-3.625 4.667-7.344 9.771-11.156 15.313L218.781 65.5l-10.406 16.219L199.813 95a82.33 82.33 0 0 1-6.875 9.344c-2.5 2.938-5.542 4.406-9.125 4.406-3.875 0-7.26-1.615-10.156-4.844s-6.385-8.385-10.469-15.469c-4.583-7.167-9.531-14.365-14.844-21.594a398.54 398.54 0 0 0-16.594-21.062c-5.75-6.812-11.687-13.115-17.812-18.906-8.167-8-16.115-13.552-23.844-16.656s-17.24-4.656-28.531-4.656c-8.042 0-16.271 1.708-24.687 5.125s-15.5 9.042-21.25 16.875S7 45.875 7 59c0 9.708 2.042 18.292 6.125 25.75s9.542 13.438 16.375 17.938l15.094 10.094a536.33 536.33 0 0 0 16.344 10.406c5.583 3.417 11.125 6.667 16.625 9.75s10.708 5.875 15.625 8.375c8 3.292 13.573 6.229 16.719 8.813s4.719 5.604 4.719 9.063c0 3.917-2.437 7.667-7.312 11.25s-11.958 7.458-21.25 11.625c-5.667 3.167-11.448 6.771-17.344 10.813a423.55 423.55 0 0 0-17.25 12.469c-5.604 4.271-10.708 8.385-15.312 12.344s-8.406 7.521-11.406 10.688c-6.417 6.167-11.312 12.958-14.687 20.375S5 265.208 5 275.875c0 10.167 2.271 18.917 6.813 26.25S22.656 315.083 30.719 319s17.365 5.875 27.906 5.875zm462.313 5.563c15.208 0 30.385-.927 45.531-2.781s28.052-4.323 38.719-7.406c11.5-3.417 22.146-7.844 31.938-13.281s17.708-12.25 23.75-20.437 9.063-18.115 9.063-29.781c0-6.833-.875-12.312-2.625-16.437s-4.375-7.5-7.875-10.125c-3.583-2.5-8.292-4.417-14.125-5.75s-11.875-2.167-18.125-2.5c-7.625-1.458-17.562-2.969-29.812-4.531s-25.354-2.969-39.312-4.219c-8.125-.375-14.865-1.562-20.219-3.562s-9.625-4.99-12.812-8.969-5.552-9.031-7.094-15.156-2.625-13.437-3.25-21.937c-.375-4.75-.635-9.771-.781-15.062l-.281-16.187.031-16.75.219-16.687.281-15.844.156-14.344c0-11.917-.969-22.333-2.906-31.25s-6.031-15.875-12.281-20.875-15.875-7.5-28.875-7.5c-18.958 0-34.187 7.302-45.687 21.906s-19.979 34.844-25.437 60.719c-1.208 6.083-2.469 13.229-3.781 21.438s-2.562 16.99-3.75 26.344a818.72 818.72 0 0 0-3.094 28.344l-2.125 27.625c-.542 8.875-.812 16.958-.812 24.25 0 30.417 5.417 54.594 16.25 72.531s30.375 29.51 58.625 34.719c5.208.917 11.135 1.656 17.781 2.219s13.646.917 21 1.063l21.719.219zm244.125-12.687c16.333 0 28.844-3.375 37.531-10.125s14.729-17.552 18.125-32.406 5.115-34.49 5.156-58.906l-.062-22.562-.344-27.187-.75-29.219-1.156-29.031L822 81.938c-.625-8.125-1.312-15.167-2.062-21.125-2.125-13.542-6.865-24.667-14.219-33.375s-18.344-13.062-32.969-13.062c-18.042 0-31.187 4.604-39.437 13.813s-14.062 23.438-17.437 42.688c-1.333 8.833-2.479 18.344-3.437 28.531s-1.771 20.76-2.437 31.719l-1.594 32.938-1 32.188-.5 29.719-.094 25.531c0 20.167 4.802 36.25 14.406 48.25s24.219 18 43.844 18zm167 0c16.333 0 28.844-3.375 37.531-10.125s14.729-17.552 18.125-32.406 5.115-34.49 5.156-58.906l-.062-22.562-.344-27.187-.75-29.219-1.156-29.031L989 81.938c-.625-8.125-1.312-15.167-2.062-21.125-2.125-13.542-6.865-24.667-14.219-33.375s-18.344-13.062-32.969-13.062c-18.042 0-31.187 4.604-39.437 13.813s-14.062 23.438-17.437 42.688c-1.333 8.833-2.479 18.344-3.437 28.531s-1.771 20.76-2.437 31.719l-1.594 32.938-1 32.188-.5 29.719-.094 25.531c0 20.167 4.802 36.25 14.406 48.25s24.219 18 43.844 18z" stroke="#000" stroke-width="10" fill="none"/></svg>